<?xml version="1.0" encoding="UTF-8" ?>
<!DOCTYPE svg PUBLIC "-//W3C//DTD SVG 1.1//EN" "http://www.w3.org/Graphics/SVG/1.1/DTD/svg11.dtd">
<svg width="143pt" height="143pt" viewBox="0 0 143 143" version="1.1" xmlns="http://www.w3.org/2000/svg">
<g id="#000000ff">
<path fill="#000000" opacity="1.00" d=" M 0.00 0.00 L 143.00 0.00 L 143.00 143.00 L 0.00 143.00 L 0.00 0.00 M 39.75 17.22 C 42.36 23.26 44.94 29.31 47.50 35.36 C 48.23 36.81 48.08 38.46 48.13 40.03 C 48.09 46.62 48.10 53.21 48.11 59.80 C 50.38 59.80 52.65 59.79 54.92 59.77 C 54.87 53.19 54.92 46.61 54.87 40.03 C 54.92 38.50 54.76 36.90 55.42 35.47 C 57.89 29.39 60.24 23.27 62.76 17.21 C 60.30 17.20 57.84 17.20 55.39 17.17 C 53.99 21.99 52.57 26.80 51.27 31.65 C 49.83 26.83 48.50 21.97 47.07 17.14 C 44.63 17.16 42.19 17.17 39.75 17.22 M 67.18 28.22 C 64.03 29.40 62.42 32.83 62.23 36.02 C 61.97 40.69 62.13 45.37 62.13 50.05 C 62.14 53.10 62.63 56.73 65.41 58.57 C 69.14 60.78 74.85 60.21 77.14 56.18 C 79.21 52.48 78.57 48.05 78.74 43.98 C 78.55 39.48 79.59 34.30 76.54 30.50 C 74.35 27.65 70.39 27.58 67.18 28.22 M 82.58 28.86 C 82.65 36.90 82.44 44.94 82.70 52.97 C 82.77 55.41 83.29 58.63 86.16 59.22 C 88.56 60.18 90.35 58.09 91.96 56.69 L 91.28 58.80 C 93.72 58.87 96.15 58.88 98.59 58.90 C 98.61 48.89 98.61 38.89 98.59 28.89 C 96.73 28.89 94.86 28.88 93.00 28.87 C 93.03 36.97 92.94 45.06 93.05 53.16 C 91.85 54.04 90.54 54.74 89.06 53.98 C 88.29 52.42 88.50 50.64 88.45 48.96 C 88.49 42.27 88.48 35.58 88.46 28.89 C 86.50 28.89 84.54 28.88 82.58 28.86 M 36.39 66.52 C 30.64 68.30 26.16 73.83 26.20 79.95 C 26.15 90.62 26.14 101.30 26.21 111.98 C 26.22 119.65 33.44 125.99 40.95 125.81 C 61.32 125.85 81.69 125.85 102.05 125.81 C 109.57 125.99 116.79 119.64 116.81 111.97 C 116.89 101.28 116.88 90.58 116.82 79.89 C 116.88 72.09 109.58 65.67 101.97 65.76 C 82.96 65.64 63.94 65.76 44.93 65.70 C 42.07 65.69 39.15 65.66 36.39 66.52 Z" />
<path fill="#000000" opacity="1.00" d=" M 67.82 35.09 C 68.06 32.08 72.59 32.17 73.02 35.07 C 73.28 41.02 73.10 46.99 73.07 52.95 C 72.56 53.44 71.55 54.40 71.04 54.88 C 69.59 54.53 67.53 53.89 67.76 51.97 C 67.68 46.35 67.57 40.71 67.82 35.09 Z" />
<path fill="#000000" opacity="1.00" d=" M 71.64 76.62 C 73.66 76.64 75.69 76.63 77.72 76.61 C 77.66 80.36 77.71 84.10 77.63 87.85 C 79.66 86.28 82.32 84.96 84.89 86.08 C 87.25 87.50 87.82 90.38 87.74 92.93 C 87.68 98.51 87.96 104.11 87.56 109.68 C 87.27 112.11 85.96 115.30 83.10 115.34 C 80.73 115.54 78.94 113.77 77.10 112.58 C 77.45 116.14 73.78 114.77 71.59 115.03 C 71.66 102.22 71.66 89.42 71.64 76.62 M 79.42 89.27 C 77.93 89.85 77.44 91.47 77.57 92.95 C 77.60 97.95 77.50 102.95 77.62 107.95 C 77.44 110.91 82.22 111.66 83.10 108.93 C 83.48 103.29 83.24 97.62 83.23 91.97 C 83.46 89.96 81.19 88.67 79.42 89.27 Z" />
<path fill="#000000" opacity="1.00" d=" M 32.61 76.60 C 39.26 76.62 45.91 76.66 52.57 76.62 C 52.56 78.24 52.56 79.85 52.58 81.47 C 50.05 81.44 47.54 81.44 45.02 81.46 C 45.09 92.72 45.04 103.98 45.05 115.25 C 42.99 115.23 40.93 115.24 38.87 115.25 C 38.88 103.96 38.85 92.67 38.88 81.38 C 36.79 81.38 34.70 81.38 32.61 81.39 C 32.61 79.80 32.61 78.20 32.61 76.60 Z" />
<path fill="#000000" opacity="1.00" d=" M 92.31 90.88 C 93.41 84.52 103.41 82.65 106.60 88.24 C 108.02 92.49 107.13 97.13 107.46 101.55 C 103.89 101.51 100.32 101.52 96.75 101.53 C 96.80 104.32 96.50 107.16 97.07 109.92 C 97.92 111.35 99.69 111.03 101.09 110.98 C 103.55 110.18 102.69 107.29 102.92 105.36 C 104.50 105.35 106.09 105.34 107.67 105.33 C 108.03 109.35 106.46 114.31 102.02 115.25 C 97.15 116.80 92.32 112.65 91.98 107.82 C 91.71 102.20 91.40 96.45 92.31 90.88 M 97.08 92.01 C 96.89 93.58 96.90 95.16 96.86 96.74 C 98.87 96.73 100.88 96.73 102.90 96.71 C 102.87 95.14 102.91 93.57 102.73 92.02 C 101.68 89.72 98.08 89.60 97.08 92.01 Z" />
<path fill="#000000" opacity="1.00" d=" M 51.50 86.64 C 53.56 86.66 55.62 86.67 57.68 86.67 C 57.66 94.13 57.62 101.59 57.72 109.04 C 57.86 111.89 61.34 110.77 61.52 108.64 C 61.64 101.31 61.53 93.97 61.54 86.64 C 63.60 86.66 65.68 86.67 67.75 86.67 C 67.67 96.19 67.68 105.71 67.74 115.24 C 66.08 115.23 64.42 115.23 62.76 115.23 C 62.80 114.37 62.89 112.63 62.93 111.77 C 60.49 114.36 56.79 116.50 53.20 114.91 C 51.49 113.44 51.66 111.04 51.54 109.00 C 51.48 101.55 51.55 94.09 51.50 86.64 Z" />
</g>
<g id="#ffffffff">
<path fill="#ffffff" opacity="1.00" d=" M 39.75 17.22 C 42.19 17.17 44.63 17.16 47.07 17.14 C 48.50 21.97 49.83 26.83 51.27 31.65 C 52.57 26.80 53.99 21.99 55.39 17.17 C 57.84 17.20 60.30 17.20 62.76 17.21 C 60.24 23.27 57.89 29.39 55.42 35.47 C 54.76 36.90 54.92 38.50 54.87 40.03 C 54.92 46.61 54.87 53.19 54.92 59.77 C 52.65 59.79 50.38 59.80 48.11 59.80 C 48.10 53.21 48.09 46.62 48.13 40.03 C 48.08 38.46 48.23 36.81 47.50 35.36 C 44.94 29.31 42.36 23.26 39.75 17.22 Z" />
<path fill="#ffffff" opacity="1.00" d=" M 67.18 28.22 C 70.39 27.58 74.35 27.65 76.54 30.50 C 79.59 34.30 78.55 39.48 78.74 43.98 C 78.57 48.05 79.21 52.48 77.14 56.18 C 74.85 60.21 69.14 60.78 65.41 58.57 C 62.63 56.73 62.14 53.10 62.13 50.05 C 62.13 45.37 61.97 40.69 62.23 36.02 C 62.42 32.83 64.03 29.40 67.18 28.22 M 67.82 35.09 C 67.57 40.71 67.68 46.35 67.76 51.97 C 67.53 53.89 69.59 54.53 71.04 54.88 C 71.55 54.40 72.56 53.44 73.07 52.95 C 73.10 46.99 73.28 41.02 73.02 35.07 C 72.59 32.17 68.06 32.08 67.82 35.09 Z" />
<path fill="#ffffff" opacity="1.00" d=" M 82.58 28.86 C 84.54 28.88 86.50 28.89 88.46 28.89 C 88.48 35.58 88.49 42.27 88.45 48.96 C 88.50 50.64 88.29 52.42 89.06 53.98 C 90.54 54.74 91.85 54.04 93.05 53.16 C 92.94 45.06 93.03 36.97 93.00 28.87 C 94.86 28.88 96.73 28.89 98.59 28.89 C 98.61 38.89 98.61 48.89 98.59 58.90 C 96.15 58.88 93.72 58.87 91.28 58.80 L 91.96 56.69 C 90.35 58.09 88.56 60.18 86.16 59.22 C 83.29 58.63 82.77 55.41 82.70 52.97 C 82.44 44.94 82.65 36.90 82.58 28.86 Z" />
<path fill="#ffffff" opacity="1.00" d=" M 36.39 66.52 C 39.15 65.66 42.07 65.69 44.93 65.70 C 63.94 65.76 82.96 65.64 101.97 65.76 C 109.58 65.67 116.88 72.09 116.82 79.89 C 116.88 90.58 116.89 101.28 116.81 111.97 C 116.79 119.64 109.57 125.99 102.05 125.81 C 81.69 125.85 61.32 125.85 40.95 125.81 C 33.44 125.99 26.22 119.65 26.21 111.98 C 26.14 101.30 26.15 90.62 26.20 79.95 C 26.16 73.83 30.64 68.30 36.39 66.52 M 71.64 76.62 C 71.66 89.42 71.66 102.22 71.59 115.03 C 73.78 114.77 77.45 116.14 77.10 112.58 C 78.94 113.77 80.73 115.54 83.10 115.34 C 85.96 115.30 87.27 112.11 87.56 109.68 C 87.96 104.11 87.68 98.51 87.74 92.93 C 87.82 90.38 87.25 87.50 84.89 86.08 C 82.32 84.96 79.66 86.28 77.63 87.85 C 77.71 84.10 77.66 80.36 77.72 76.61 C 75.69 76.63 73.66 76.64 71.64 76.62 M 32.61 76.60 C 32.61 78.20 32.61 79.80 32.61 81.39 C 34.70 81.38 36.79 81.38 38.88 81.38 C 38.85 92.67 38.88 103.96 38.87 115.25 C 40.93 115.24 42.99 115.23 45.05 115.25 C 45.04 103.98 45.09 92.72 45.02 81.46 C 47.54 81.44 50.05 81.44 52.58 81.47 C 52.56 79.85 52.56 78.24 52.57 76.62 C 45.91 76.66 39.26 76.62 32.61 76.60 M 92.31 90.88 C 91.40 96.45 91.71 102.20 91.98 107.82 C 92.32 112.65 97.15 116.80 102.02 115.25 C 106.46 114.31 108.03 109.35 107.67 105.33 C 106.09 105.34 104.50 105.35 102.92 105.36 C 102.69 107.29 103.55 110.18 101.09 110.98 C 99.69 111.03 97.92 111.35 97.07 109.92 C 96.50 107.16 96.80 104.32 96.75 101.53 C 100.32 101.52 103.89 101.51 107.46 101.55 C 107.13 97.13 108.02 92.49 106.60 88.24 C 103.41 82.65 93.41 84.52 92.31 90.88 M 51.50 86.64 C 51.55 94.09 51.48 101.55 51.54 109.00 C 51.66 111.04 51.49 113.44 53.20 114.91 C 56.79 116.50 60.49 114.36 62.93 111.77 C 62.89 112.63 62.80 114.37 62.76 115.23 C 64.42 115.23 66.08 115.23 67.74 115.24 C 67.68 105.71 67.67 96.19 67.75 86.67 C 65.68 86.67 63.60 86.66 61.54 86.64 C 61.53 93.97 61.64 101.31 61.52 108.64 C 61.34 110.77 57.86 111.89 57.72 109.04 C 57.62 101.59 57.66 94.13 57.68 86.67 C 55.62 86.67 53.56 86.66 51.50 86.64 Z" />
<path fill="#ffffff" opacity="1.00" d=" M 79.42 89.27 C 81.19 88.67 83.46 89.96 83.23 91.97 C 83.24 97.62 83.48 103.29 83.10 108.93 C 82.22 111.66 77.44 110.91 77.62 107.95 C 77.50 102.95 77.60 97.95 77.57 92.95 C 77.44 91.47 77.93 89.85 79.42 89.27 Z" />
<path fill="#ffffff" opacity="1.00" d=" M 97.08 92.01 C 98.08 89.60 101.68 89.72 102.73 92.02 C 102.91 93.57 102.87 95.14 102.90 96.71 C 100.88 96.73 98.87 96.73 96.86 96.74 C 96.90 95.16 96.89 93.58 97.08 92.01 Z" />
</g>
</svg>
