<?xml version="1.0" encoding="UTF-8" ?>
<!DOCTYPE svg PUBLIC "-//W3C//DTD SVG 1.1//EN" "http://www.w3.org/Graphics/SVG/1.1/DTD/svg11.dtd">
<svg width="452pt" height="457pt" viewBox="0 0 452 457" version="1.1" xmlns="http://www.w3.org/2000/svg">
<g id="#2d2b2bff">
<path fill="#2d2b2b" opacity="1.00" d=" M 217.29 0.00 L 241.37 0.00 C 248.62 1.18 255.98 1.46 263.22 2.71 C 286.68 6.30 309.57 13.64 330.74 24.38 C 385.84 52.13 429.01 103.12 446.16 162.48 C 438.04 163.77 429.72 164.41 421.55 163.17 C 410.35 161.61 399.55 156.46 391.86 148.09 C 387.40 143.35 384.77 137.31 381.26 131.89 C 359.97 97.82 327.06 71.13 289.19 57.64 C 253.82 44.85 214.40 43.70 178.30 54.21 C 147.61 63.03 119.45 80.31 97.55 103.54 C 71.44 130.88 54.35 166.67 49.54 204.18 C 65.59 204.14 81.63 204.18 97.67 204.16 C 104.15 219.76 110.76 235.31 117.34 250.86 C 78.96 250.86 40.57 250.78 2.18 250.91 C -0.67 221.44 1.72 191.35 10.27 162.94 C 23.38 118.31 50.80 78.16 87.23 49.28 C 120.84 22.54 162.17 5.53 204.94 1.30 C 209.07 0.96 213.19 0.57 217.29 0.00 Z" />
<path fill="#2d2b2b" opacity="1.00" d=" M 357.65 205.18 C 388.66 205.19 419.68 205.20 450.69 205.18 C 450.72 209.71 451.12 214.24 452.00 218.69 L 452.00 237.03 C 450.67 246.70 450.50 256.50 448.65 266.11 C 439.77 320.64 409.88 371.25 366.80 405.76 C 336.29 430.46 299.26 447.06 260.48 453.19 C 242.45 456.25 224.07 456.38 205.87 455.38 C 150.24 451.07 96.72 425.16 58.72 384.34 C 34.49 358.77 16.48 327.42 6.34 293.70 C 14.83 292.36 23.53 291.55 32.04 293.14 C 45.99 295.17 59.31 303.24 66.33 315.64 C 76.40 333.72 89.48 350.15 105.03 363.83 C 131.22 387.10 164.35 402.47 199.07 407.29 C 241.31 413.48 285.63 403.67 321.47 380.52 C 344.28 365.89 363.72 346.07 377.91 322.99 C 391.31 301.50 399.62 277.10 403.30 252.09 C 381.63 251.66 359.95 251.95 338.27 251.90 C 344.80 236.36 351.23 220.77 357.65 205.18 Z" />
</g>
<g id="#868686ff">
<path fill="#868686" opacity="1.00" d=" M 104.05 136.47 C 114.90 136.05 125.78 138.17 135.87 142.14 C 151.06 148.04 163.54 160.08 170.28 174.88 C 172.39 179.84 174.22 184.90 176.24 189.89 C 176.76 191.30 177.29 192.71 177.81 194.13 C 179.01 197.02 180.09 199.96 181.24 202.88 C 184.24 210.57 187.14 218.30 190.22 225.97 C 191.20 228.60 192.20 231.23 193.24 233.85 C 193.87 235.55 194.54 237.25 195.21 238.94 C 196.88 243.27 198.51 247.60 200.24 251.91 C 200.76 253.31 201.30 254.70 201.83 256.10 C 203.00 259.00 204.10 261.94 205.24 264.86 C 205.87 266.56 206.54 268.25 207.22 269.94 C 207.74 271.34 208.28 272.73 208.81 274.14 C 209.97 277.05 211.06 280.00 212.23 282.91 C 212.75 284.31 213.30 285.70 213.84 287.11 C 214.51 288.77 215.16 290.44 215.77 292.13 C 216.26 293.36 216.74 294.61 217.24 295.85 C 217.87 297.55 218.53 299.25 219.20 300.95 C 220.88 305.27 222.51 309.61 224.24 313.92 C 224.75 315.31 225.30 316.70 225.83 318.10 C 226.86 320.48 227.38 323.15 229.09 325.18 C 230.65 321.11 232.27 317.06 233.79 312.97 C 234.47 311.29 235.14 309.61 235.77 307.92 C 237.49 303.62 239.14 299.30 240.78 294.97 C 242.15 291.62 243.47 288.24 244.74 284.86 C 245.81 282.25 246.81 279.61 247.79 276.97 C 248.46 275.29 249.14 273.62 249.77 271.93 C 251.48 267.62 253.14 263.29 254.79 258.97 C 255.47 257.29 256.14 255.62 256.78 253.93 C 257.93 251.01 259.04 248.08 260.20 245.17 C 261.36 242.08 262.60 239.02 263.77 235.94 C 266.15 229.95 268.44 223.94 270.78 217.94 C 274.95 207.35 278.99 196.72 283.19 186.14 C 283.71 184.73 284.25 183.33 284.77 181.93 C 286.12 178.59 287.30 175.19 288.67 171.86 C 295.24 158.12 307.90 148.28 321.83 142.72 C 332.08 138.88 342.95 136.21 353.96 136.45 C 353.08 138.68 352.15 140.89 351.24 143.11 C 350.54 144.74 349.86 146.37 349.21 148.02 C 348.21 150.39 347.22 152.77 346.25 155.15 C 345.55 156.78 344.87 158.43 344.22 160.08 C 343.41 162.00 342.61 163.92 341.80 165.84 C 340.96 167.94 340.09 170.02 339.25 172.11 C 338.43 174.03 337.63 175.95 336.82 177.87 C 335.98 179.97 335.11 182.06 334.26 184.15 C 333.55 185.78 332.88 187.42 332.22 189.07 C 331.42 190.99 330.61 192.91 329.80 194.83 C 328.96 196.93 328.08 199.02 327.25 201.12 C 326.43 203.03 325.63 204.95 324.82 206.87 C 323.97 208.96 323.09 211.04 322.25 213.13 C 321.56 214.76 320.87 216.39 320.22 218.04 C 319.42 219.97 318.62 221.90 317.80 223.83 C 316.96 225.92 316.08 228.00 315.25 230.10 C 314.42 232.01 313.62 233.93 312.81 235.85 C 311.97 237.95 311.10 240.03 310.26 242.13 C 309.43 244.04 308.63 245.96 307.82 247.88 C 306.99 249.98 306.11 252.06 305.26 254.15 C 304.56 255.79 303.88 257.43 303.23 259.09 C 302.41 261.00 301.61 262.92 300.80 264.84 C 299.97 266.94 299.09 269.02 298.25 271.12 C 297.42 273.03 296.62 274.96 295.82 276.88 C 294.99 278.98 294.11 281.06 293.25 283.16 C 292.55 284.79 291.87 286.43 291.22 288.08 C 290.41 290.00 289.61 291.92 288.80 293.83 C 287.96 295.93 287.09 298.01 286.25 300.11 C 285.43 302.03 284.63 303.95 283.82 305.87 C 282.98 307.97 282.11 310.05 281.26 312.15 C 280.55 313.78 279.87 315.42 279.22 317.07 C 278.41 318.99 277.61 320.91 276.80 322.83 C 275.97 324.93 275.09 327.01 274.25 329.11 C 273.42 331.02 272.62 332.94 271.81 334.87 C 270.98 336.97 270.10 339.05 269.25 341.14 C 268.55 342.77 267.88 344.41 267.22 346.07 C 266.22 348.42 265.22 350.77 264.29 353.16 C 259.26 364.54 249.84 373.93 238.10 378.28 C 234.79 379.39 231.42 380.33 227.97 380.94 C 223.73 381.89 219.34 381.60 215.02 381.66 C 211.59 381.53 207.98 381.88 204.78 380.37 C 204.22 378.56 203.53 376.80 202.81 375.06 C 202.12 373.41 201.44 371.78 200.74 370.14 C 199.77 367.75 198.78 365.38 197.79 363.00 C 197.13 361.36 196.45 359.72 195.76 358.09 C 194.91 356.01 194.04 353.93 193.21 351.84 C 192.39 349.92 191.59 348.00 190.78 346.08 C 190.12 344.42 189.44 342.78 188.75 341.14 C 187.88 339.05 187.01 336.98 186.18 334.88 C 185.37 332.95 184.57 331.02 183.74 329.11 C 182.89 327.01 182.02 324.93 181.19 322.83 C 180.38 320.92 179.58 319.00 178.78 317.09 C 178.12 315.43 177.44 313.78 176.74 312.15 C 175.88 310.06 175.01 307.98 174.17 305.89 C 173.37 303.96 172.57 302.03 171.74 300.11 C 170.89 298.02 170.02 295.94 169.19 293.84 C 168.37 291.92 167.58 290.00 166.77 288.09 C 166.11 286.43 165.44 284.79 164.74 283.16 C 163.88 281.07 163.01 278.98 162.17 276.89 C 161.36 274.96 160.56 273.03 159.74 271.12 C 158.89 269.02 158.02 266.94 157.18 264.85 C 156.37 262.93 155.58 261.01 154.77 259.09 C 153.13 255.07 151.46 251.06 149.79 247.05 C 149.13 245.40 148.44 243.76 147.74 242.14 C 146.89 240.04 146.01 237.96 145.18 235.86 C 144.37 233.94 143.57 232.02 142.75 230.11 C 141.90 228.01 141.03 225.92 140.20 223.82 C 139.38 221.91 138.58 219.99 137.78 218.08 C 137.12 216.42 136.44 214.78 135.74 213.14 C 134.88 211.05 134.01 208.98 133.17 206.88 C 132.36 204.96 131.57 203.03 130.75 201.11 C 129.90 199.02 129.02 196.94 128.19 194.84 C 127.38 192.92 126.58 191.00 125.76 189.09 C 124.93 186.99 124.07 184.90 123.21 182.82 C 122.51 181.18 121.82 179.54 121.17 177.88 C 120.37 175.95 119.57 174.03 118.75 172.11 C 117.90 170.02 117.02 167.94 116.20 165.84 C 115.38 163.92 114.58 162.00 113.76 160.08 C 112.93 157.99 112.07 155.90 111.21 153.82 C 110.51 152.18 109.82 150.54 109.17 148.88 C 108.37 146.95 107.57 145.03 106.74 143.11 C 105.85 140.90 104.93 138.69 104.05 136.47 Z" />
</g>
</svg>
