<?xml version="1.0" encoding="UTF-8" standalone="no"?>
<!-- Generator: Adobe Illustrator 21.0.0, SVG Export Plug-In . SVG Version: 6.00 Build 0)  -->

<svg
   xmlns:dc="http://purl.org/dc/elements/1.1/"
   xmlns:cc="http://creativecommons.org/ns#"
   xmlns:rdf="http://www.w3.org/1999/02/22-rdf-syntax-ns#"
   xmlns:svg="http://www.w3.org/2000/svg"
   xmlns="http://www.w3.org/2000/svg"
   xmlns:sodipodi="http://sodipodi.sourceforge.net/DTD/sodipodi-0.dtd"
   xmlns:inkscape="http://www.inkscape.org/namespaces/inkscape"
   version="1.1"
   id="Layer_1"
   x="0px"
   y="0px"
   viewBox="0 0 98.624 98.624"
   style="enable-background:new 0 0 98.624 98.624;"
   xml:space="preserve"
   sodipodi:docname="Tilda_Icons_26sn_instagram.svg"
   inkscape:version="0.92.1 r15371"><metadata
     id="metadata15"><rdf:RDF><cc:Work
         rdf:about=""><dc:format>image/svg+xml</dc:format><dc:type
           rdf:resource="http://purl.org/dc/dcmitype/StillImage" /><dc:title></dc:title></cc:Work></rdf:RDF></metadata><defs
     id="defs13" /><sodipodi:namedview
     pagecolor="#ffffff"
     bordercolor="#666666"
     borderopacity="1"
     objecttolerance="10"
     gridtolerance="10"
     guidetolerance="10"
     inkscape:pageopacity="0"
     inkscape:pageshadow="2"
     inkscape:window-width="1920"
     inkscape:window-height="1027"
     id="namedview11"
     showgrid="false"
     inkscape:zoom="2.3929267"
     inkscape:cx="49.312"
     inkscape:cy="116.17573"
     inkscape:window-x="-8"
     inkscape:window-y="-8"
     inkscape:window-maximized="1"
     inkscape:current-layer="g8" /><g
     id="g8"><path
       d="M62.161,24.47H36.218c-6.492,0-11.774,5.282-11.774,11.774v26.181c0,6.492,5.282,11.774,11.774,11.774h25.943   c6.492,0,11.774-5.282,11.774-11.774V36.244C73.935,29.752,68.653,24.47,62.161,24.47z M49.239,65.011   c-8.8,0-15.959-7.083-15.959-15.789c0-8.706,7.16-15.789,15.959-15.789s15.959,7.083,15.959,15.789   C65.198,57.928,58.039,65.011,49.239,65.011z M65.482,36.542c-2.074,0-3.755-1.681-3.755-3.755c0-2.074,1.681-3.755,3.755-3.755   c2.074,0,3.755,1.681,3.755,3.755C69.237,34.861,67.556,36.542,65.482,36.542z"
       id="path2"
       style="fill:#2d2b2b;fill-opacity:1" /><path
       d="M 49.3125 0 C 22.0785 0 -9.4739031e-015 22.0785 0 49.3125 C 0 76.5465 22.0785 98.623047 49.3125 98.623047 C 76.5465 98.623047 98.623047 76.5465 98.623047 49.3125 C 98.623047 22.0785 76.5465 -9.4739031e-015 49.3125 0 z M 36.21875 18.646484 L 62.160156 18.646484 C 71.864156 18.646484 79.759766 26.541141 79.759766 36.244141 L 79.759766 62.425781 C 79.759766 72.129781 71.863156 80.023437 62.160156 80.023438 L 36.21875 80.023438 C 26.51475 80.023438 18.619141 72.128781 18.619141 62.425781 L 18.619141 36.244141 C 18.619141 26.540141 26.51575 18.646484 36.21875 18.646484 z "
       id="path4"
       style="fill:#2d2b2b;fill-opacity:1" /><path
       d="M49.239,39.246c-5.595,0-10.146,4.475-10.146,9.976c0,5.501,4.551,9.976,10.146,9.976c5.595,0,10.146-4.475,10.146-9.976   C59.385,43.721,54.834,39.246,49.239,39.246z"
       id="path6"
       style="fill:#2d2b2b;fill-opacity:1" /></g></svg>