<?xml version="1.0" encoding="UTF-8" standalone="no"?>
<!-- Generator: Adobe Illustrator 21.0.0, SVG Export Plug-In . SVG Version: 6.00 Build 0)  -->

<svg
   xmlns:dc="http://purl.org/dc/elements/1.1/"
   xmlns:cc="http://creativecommons.org/ns#"
   xmlns:rdf="http://www.w3.org/1999/02/22-rdf-syntax-ns#"
   xmlns:svg="http://www.w3.org/2000/svg"
   xmlns="http://www.w3.org/2000/svg"
   xmlns:sodipodi="http://sodipodi.sourceforge.net/DTD/sodipodi-0.dtd"
   xmlns:inkscape="http://www.inkscape.org/namespaces/inkscape"
   version="1.1"
   id="Layer_1"
   x="0px"
   y="0px"
   viewBox="0 0 98.624 98.624"
   style="enable-background:new 0 0 98.624 98.624;"
   xml:space="preserve"
   sodipodi:docname="Tilda_Icons_26sn_youtube.svg"
   inkscape:version="0.92.1 r15371"><metadata
     id="metadata15"><rdf:RDF><cc:Work
         rdf:about=""><dc:format>image/svg+xml</dc:format><dc:type
           rdf:resource="http://purl.org/dc/dcmitype/StillImage" /><dc:title></dc:title></cc:Work></rdf:RDF></metadata><defs
     id="defs13" /><sodipodi:namedview
     pagecolor="#ffffff"
     bordercolor="#666666"
     borderopacity="1"
     objecttolerance="10"
     gridtolerance="10"
     guidetolerance="10"
     inkscape:pageopacity="0"
     inkscape:pageshadow="2"
     inkscape:window-width="1920"
     inkscape:window-height="1027"
     id="namedview11"
     showgrid="false"
     inkscape:zoom="2.3929267"
     inkscape:cx="49.312"
     inkscape:cy="49.312"
     inkscape:window-x="-8"
     inkscape:window-y="-8"
     inkscape:window-maximized="1"
     inkscape:current-layer="g8" /><g
     id="g8"><g
       id="g4562"
       transform="translate(0.41789901)"
       style="fill:#2d2b2b;fill-opacity:1"><polygon
         id="polygon4558"
         points="43.716,56.528 58.987,48.427 43.716,40.49 "
         style="fill:#2d2b2b;fill-opacity:1" /><path
         id="path4560"
         d="M 49.312,0 C 22.078,0 0,22.078 0,49.312 0,76.546 22.078,98.624 49.312,98.624 76.546,98.624 98.624,76.546 98.624,49.312 98.624,22.078 76.546,0 49.312,0 Z m 27.533,60.797 c -0.657,4.16 -2.668,6.419 -6.897,6.897 -4.726,0.534 -15.352,0.78 -20.075,0.78 -4.887,0 -14.771,-0.205 -19.705,-0.616 -4.241,-0.353 -7.135,-2.722 -7.718,-6.938 -0.424,-3.07 -0.698,-6.719 -0.698,-12.521 0,-6.459 0.233,-9.192 0.78,-12.11 0.781,-4.164 2.769,-6.181 7.307,-6.65 4.762,-0.493 9.264,-0.739 19.336,-0.739 4.924,0 15.54,0.255 20.444,0.698 4.283,0.387 6.696,3.007 7.225,7.184 0.369,2.915 0.698,7.088 0.698,11.577 0.001,7.881 -0.697,12.438 -0.697,12.438 z"
         inkscape:connector-curvature="0"
         style="fill:#2d2b2b;fill-opacity:1" /></g></g></svg>