<?xml version="1.0" encoding="UTF-8" ?>
<!DOCTYPE svg PUBLIC "-//W3C//DTD SVG 1.1//EN" "http://www.w3.org/Graphics/SVG/1.1/DTD/svg11.dtd">
<svg width="514pt" height="610pt" viewBox="0 0 514 610" version="1.1" xmlns="http://www.w3.org/2000/svg">
<g id="#000000ff">
<path fill="#000000" opacity="1.00" d=" M 0.00 0.00 L 514.00 0.00 L 514.00 610.00 L 292.12 610.00 C 292.12 531.67 292.11 453.34 292.12 375.02 C 291.70 368.58 295.62 361.98 301.89 360.01 C 305.52 359.26 309.25 358.29 312.97 359.08 C 314.96 358.71 317.00 358.65 319.00 359.08 C 321.34 358.77 323.70 358.67 326.06 358.89 C 327.36 359.15 328.66 359.15 329.97 358.89 C 336.93 358.46 343.95 359.27 350.88 358.36 C 355.95 356.70 360.53 352.72 361.89 347.41 C 363.67 341.77 363.26 335.81 364.35 330.05 C 365.38 319.39 366.54 308.73 367.57 298.07 C 368.35 293.07 368.84 287.99 368.55 282.94 C 367.53 277.04 361.88 272.40 355.88 272.61 C 342.91 272.56 329.95 272.61 316.99 272.59 C 311.70 272.49 306.25 273.15 301.16 271.36 C 296.66 269.38 292.97 265.14 292.42 260.16 C 291.90 256.46 292.17 252.73 292.12 249.01 C 292.19 237.37 291.77 225.68 293.06 214.10 C 294.58 207.98 297.13 200.79 303.49 198.28 C 307.94 195.87 313.06 195.58 317.97 194.87 C 330.65 193.96 343.38 194.83 356.07 194.31 C 363.50 194.13 369.72 187.42 369.60 180.05 C 369.69 161.08 369.63 142.09 369.63 123.11 C 369.69 117.79 366.86 112.35 362.00 109.95 C 359.07 107.96 355.37 108.34 352.01 108.24 C 330.00 108.35 308.00 108.06 286.00 108.47 C 272.43 109.78 258.64 111.42 245.84 116.45 C 232.56 121.13 220.22 129.11 211.40 140.18 C 201.47 152.23 195.47 167.04 192.06 182.16 C 191.16 186.05 190.92 190.08 189.84 193.93 C 189.65 197.93 189.26 201.90 188.61 205.85 C 188.07 222.93 188.50 240.03 188.29 257.12 C 187.80 260.34 187.36 263.77 185.32 266.44 C 183.90 268.67 181.48 269.93 179.37 271.41 C 172.75 273.31 165.84 272.39 159.06 272.59 C 153.28 272.65 146.66 271.83 141.91 275.87 C 137.94 278.98 136.31 284.08 136.40 288.99 C 136.42 307.00 136.39 325.01 136.41 343.03 C 136.35 348.35 138.60 353.93 143.39 356.66 C 146.42 358.99 150.38 358.75 153.98 358.79 C 160.54 358.72 167.10 358.91 173.65 358.66 C 175.52 360.26 178.35 359.21 180.29 360.75 C 185.62 363.33 188.10 369.27 188.33 374.92 C 188.35 453.28 188.33 531.64 188.33 610.00 L 0.00 610.00 L 0.00 0.00 Z" />
</g>
<g id="#ffffffff">
<path fill="#ffffff" opacity="1.00" d=" M 245.84 116.45 C 258.64 111.42 272.43 109.78 286.00 108.47 C 308.00 108.06 330.00 108.35 352.01 108.24 C 355.37 108.34 359.07 107.96 362.00 109.95 C 366.86 112.35 369.69 117.79 369.63 123.11 C 369.63 142.09 369.69 161.08 369.60 180.05 C 369.72 187.42 363.50 194.13 356.07 194.31 C 343.38 194.83 330.65 193.96 317.97 194.87 C 313.06 195.58 307.94 195.87 303.49 198.28 C 297.13 200.79 294.58 207.98 293.06 214.10 C 291.77 225.68 292.19 237.37 292.12 249.01 C 292.17 252.73 291.90 256.46 292.42 260.16 C 292.97 265.14 296.66 269.38 301.16 271.36 C 306.25 273.15 311.70 272.49 316.99 272.59 C 329.95 272.61 342.91 272.56 355.88 272.61 C 361.88 272.40 367.53 277.04 368.55 282.94 C 368.84 287.99 368.35 293.07 367.57 298.07 C 366.54 308.73 365.38 319.39 364.35 330.05 C 363.26 335.81 363.67 341.77 361.89 347.41 C 360.53 352.72 355.95 356.70 350.88 358.36 C 343.95 359.27 336.93 358.46 329.97 358.89 C 328.66 359.15 327.36 359.15 326.06 358.89 C 323.70 358.67 321.34 358.77 319.00 359.08 C 317.00 358.65 314.96 358.71 312.97 359.08 C 309.25 358.29 305.52 359.26 301.89 360.01 C 295.62 361.98 291.70 368.58 292.12 375.02 C 292.11 453.34 292.12 531.67 292.12 610.00 L 188.33 610.00 C 188.33 531.64 188.35 453.28 188.33 374.92 C 188.10 369.27 185.62 363.33 180.29 360.75 C 178.35 359.21 175.52 360.26 173.65 358.66 C 167.10 358.91 160.54 358.72 153.98 358.79 C 150.38 358.75 146.42 358.99 143.39 356.66 C 138.60 353.93 136.35 348.35 136.41 343.03 C 136.39 325.01 136.42 307.00 136.40 288.99 C 136.31 284.08 137.94 278.98 141.91 275.87 C 146.66 271.83 153.28 272.65 159.06 272.59 C 165.84 272.39 172.75 273.31 179.37 271.41 C 181.48 269.93 183.90 268.67 185.32 266.44 C 187.36 263.77 187.80 260.34 188.29 257.12 C 188.50 240.03 188.07 222.93 188.61 205.85 C 189.26 201.90 189.65 197.93 189.84 193.93 C 190.92 190.08 191.16 186.05 192.06 182.16 C 195.47 167.04 201.47 152.23 211.40 140.18 C 220.22 129.11 232.56 121.13 245.84 116.45 Z" />
</g>
</svg>
