<?xml version="1.0" encoding="utf-8"?>
<!-- Generator: Adobe Illustrator 19.0.0, SVG Export Plug-In . SVG Version: 6.00 Build 0)  -->
<svg version="1.1" id="Layer_1" xmlns="http://www.w3.org/2000/svg" xmlns:xlink="http://www.w3.org/1999/xlink" x="0px" y="0px"
	 viewBox="204 -113 1020 1018" style="enable-background:new 204 -113 1020 1018;" xml:space="preserve">
<style type="text/css">
	.st0{fill:#020202;}
	.st1{fill:#FFFFFF;}
</style>
<g id="_x23_020202ff">
	<path class="st0" d="M204-113h1020V905H204V-113 M413.3,29.3c-6.8,1.7-13.4,4.2-19.9,6.8c-0.7,0.3-0.9,0.5-2.1,0.8
		c-3.2,1.5-3.7,1.9-6.2,4.2c-8.2,6.3-16.3,12.8-22.9,20.9c0.6,0.9,1.3,1.8,1.9,2.6c-1.2-0.1-2.4-0.2-3.6-0.2
		c-3.5,5.6-6.3,11.6-9.5,17.4c0.5-0.1,1.4-0.4,1.9-0.6c-9.9,15.1-8.4,34.3-6.9,51.4c1-0.2,1.9-0.4,2.9-0.6c-0.7,1.2-1.4,2.4-2.1,3.7
		c0.9-0.3,1.8-0.6,2.7-0.8c-0.4,1.6-0.8,3.1-1.2,4.7c3.1,6.9,3.7,15.7,11.2,19.5c-1,0.3-2.1,0.5-3.1,0.8c1.8,2.6,4.3,4.8,7.7,4.5
		c-0.7,1.5-1.3,3.1-1.8,4.7c0.6-0.7,1.7-2,2.3-2.7c0.6-0.1,1.7-0.2,2.3-0.3c0,0.7,0.1,2,0.1,2.6c-0.6,0-1.7-0.1-2.2-0.1
		c0.4,1.4,0.9,2.8,1.3,4.2c2.1,0,4.1,0,6.2,0.1c-1.1,0.5-2.3,1-3.4,1.4c6.2,7.6,14.9,12.5,22.8,18.1c-0.2-1.2-0.3-2.3-0.5-3.5
		c3.7,7,12,8,18.8,10.1c12.6,3.8,26,2.7,38.9,0.9c5.3-1.1,10.8-2,15.1-5.5c3.7-0.1,7.2-1.6,9.8-4.2c-0.8-0.3-2.4-0.9-3.2-1.2
		c2.9-0.1,6.2,0.2,8.7-1.6c6.1-4,12-8.6,16.8-14.2c4.4-4.8,7.1-10.8,11.1-15.9c2.4-3,3.5-6.6,4.4-10.2c0.9-3.6,3-6.7,4.1-10.2
		c6.3-20.8,2.3-43.3-7.1-62.6c-0.2-0.5-0.4-0.9-0.5-1.2c-0.2-0.4-0.2-0.5-0.5-1c-4-6-12.7-15.5-13.6-16.6c-0.8-1.2-1.1-1.5-1.5-2.1
		c-7.8-7-14.1-12.8-23.5-17.4c-0.5-0.3-0.5-0.3-0.8-0.5c-0.5-0.3-0.5-0.2-0.9-0.5c-6.9-2.6-13.8-4.9-21.1-6.3
		c-3.7-0.6-4.9-0.9-9.4-1.2c-7.5,0-11.3,0.8-21.7,1.4 M415.2,29 M844.2,263.4c-14,4.5-28.3,8.6-40.6,17.1c-0.4,0.2-0.7,0.2-1.2,0.4
		c-0.4,0.3-0.8,0.4-1.2,0.7c-3.6,2.5-7,5.3-10.5,7.9c-17.9,11.4-31.7,28.2-42,46.6c-1.4-0.1-2.8-0.2-4.2-0.4
		c0.9-22,0.2-43.9,0.1-65.9c-47.5-1.3-95.2-0.5-142.7-0.7c-0.1,161.6,0,323.3,0,485c49.4,0.1,98.8-0.1,148.2,0.1
		c1.7-22.3,0.4-44.8,0.8-67.1c-0.3-60.3,0.7-120.7-0.6-181c0.4-2.2,1.1-4.4,1.8-6.5c-0.6,0-1.7,0-2.3,0c0.5-0.7,1.1-1.4,1.6-2.1
		c-1-0.6-1.9-1.2-2.8-1.9c1,0.1,2.1,0.2,3.1,0.3c-0.1-3.8-0.3-7.7-0.5-11.5c0.3,0.1,0.8,0.3,1,0.4c-0.7-6.4,1.9-12.5,2.4-18.8
		c2.8-18.1,9-36.3,20.9-50.5c-0.4-1.1-0.9-2.1-1.3-3.2c1.3,0.1,2.6,0.3,3.9,0.4c0.2-0.9,0.4-1.7,0.6-2.6c4.1-2.8,7.7-6.2,11.8-8.9
		c-0.6-1.4-1.2-2.8-1.8-4.2c1.7,1,3.1,4.3,5.3,2.5c5.5-2.9,11.2-5.7,17.4-6.9c-0.5-0.8-1-1.7-1.5-2.5c0.6,0,1.2,0.1,1.8,0.1
		c3.1,1.7,6.4,0,9-1.9c-0.2,0.4-0.5,1.3-0.7,1.7c11.3-2,22.9-1,34.3-1.1c6.1,0.2,12,1.8,17.7,3.5c6.6,1.6,12,5.9,17.8,9.3
		c12,8.9,19.8,22.3,23.9,36.5c0.9,4.2,5.1,6,8.3,8.1c-2.1-0.3-4.1-0.6-6.2-0.9c1.7,5.5,3.6,11.1,3.5,17c0.9,0,1.9,0.1,2.8,0.2
		c-0.6,0.8-1.2,1.7-1.8,2.5c0,9.7,1.6,19.3,1.5,29c0.1,86.7,0,173.3,0,260c39.7,0.1,79.3-0.1,119,0.1c8.9,0.1,17.9-0.2,26.8-1.6
		c-0.1,0.4-0.3,1.1-0.3,1.5c0.5,0,1.6,0,2.1,0c0-0.5,0-1.5,0-2c1.2,0.6,2.4,1.3,3.6,2c-0.1-83,0-165.9-0.1-248.9
		c-1-18.4-1.1-36.8-0.9-55.2c-0.9,1.8-1.8,3.7-2.8,5.6c1.1-5.3,1.6-10.7-0.4-15.9c0.8,0,1.5-0.1,2.3-0.1c-0.6-1.4-1.1-2.8-1.6-4.2
		c0-1.3,0.1-2.6,0.2-3.8c-0.5,0.1-1.5,0.2-2,0.3c0.7-1.1,1.5-2.3,2.2-3.4c-0.4,0.2-1.2,0.5-1.5,0.6c1.9-7.3-1-14.7-1.7-22.1
		c-0.4-7.8-3.4-15.1-4.5-22.7c-1.4-10.6-4.9-20.9-9.3-30.6c-2.2-5.6-4-11.4-6.6-16.9c0.1,1.5,0.2,3.1,0.2,4.6
		c-0.7-0.8-1.4-1.6-2.1-2.3c1.2-5.4-2.5-10-5.1-14.3c-5-8.4-11.6-15.8-18.2-23c-2-1.9-4.8-2.4-7.4-3.3c0.8-0.2,2.3-0.5,3-0.6
		c-17.3-16.2-39.2-27-62-32.9c-4.8-1.6-10.2-2.9-13-3.1c-0.7-0.1-1.2-0.1-2-0.3c-12.5-1.7-29-4.4-31.5-4.3c-0.7,0-3.6-0.1-4.2-0.1
		c-4,0.3-7.5,0.9-11.5,0.5c-8.1-0.7-16,1.9-24.1,1.3 M868.7,258.9 M356.2,269.4c-0.5,161.5-0.1,323.1-0.2,484.6
		c50,0.1,100,0.1,149.9,0c0-161.6,0-323.3,0-484.9c-48.2,0-96.3-0.3-144.5,0.1c-0.2,0.7-0.5,2-0.7,2.7c-0.6-0.9-1.2-1.8-1.8-2.7
		C358.1,269.3,357.1,269.3,356.2,269.4z"/>
	<path class="st0" d="M358.2,750.2C362.2,749.2,357.3,754.2,358.2,750.2z"/>
</g>
<g id="_x23_ffffffff">
	<path class="st1" d="M356.2,269.4c0.9,0,1.9-0.1,2.8-0.2c0.6,0.9,1.2,1.8,1.8,2.7c0.2-0.7,0.5-2,0.7-2.7
		c48.2-0.4,96.3-0.1,144.5-0.1c0,161.6,0,323.3,0,484.9c-50,0.1-100,0.1-149.9,0C356.1,592.4,355.7,430.9,356.2,269.4 M358.2,750.2
		C357.3,754.2,362.2,749.2,358.2,750.2z"/>
</g>
</svg>
